<?xml version="1.0" encoding="UTF-8"?>
<svg id="Layer_2" data-name="Layer 2" xmlns="http://www.w3.org/2000/svg" viewBox="0 0 1300 696.02">
  <defs>
    <style>
      .cls-1 {
        letter-spacing: 0em;
      }

      .cls-2 {
        letter-spacing: -.02em;
      }

      .cls-3 {
        letter-spacing: 0em;
      }

      .cls-4, .cls-5 {
        fill: #d3232b;
      }

      .cls-6 {
        letter-spacing: 0em;
      }

      .cls-5 {
        font-family: Roboto-Medium, Roboto;
        font-size: 90.29px;
        font-weight: 500;
      }

      .cls-7 {
        letter-spacing: 0em;
      }
    </style>
  </defs>
  <g id="Layer_1-2" data-name="Layer 1">
    <g>
      <g>
        <path class="cls-4" d="M141.8,462.86H39.67c1.9,7.94,6.07,14.25,12.5,18.93,6.43,4.68,14.4,7.02,23.92,7.02,6.67,0,12.14-.95,16.43-2.86,4.29-1.9,8.49-5.31,12.62-10.24h34.52c-3.97,12.38-11.82,22.5-23.57,30.35-11.75,7.86-24.84,11.78-39.28,11.78-20,0-36.9-6.58-50.71-19.76-13.81-13.17-20.71-29.44-20.71-48.8s6.74-35.79,20.23-49.28c13.49-13.49,29.91-20.24,49.28-20.24s35.95,6.67,48.8,20c12.85,13.33,19.28,30.31,19.28,50.94,0,4.29-.4,8.33-1.19,12.14M38.72,435.01h73.08c-4.13-17.46-16.19-26.19-36.18-26.19s-31.82,8.73-36.9,26.19"/>
        <path class="cls-4" d="M296.53,338.83v175.92h-29.04v-17.14c-12.22,13.49-26.74,20.24-43.56,20.24-18.73,0-34.44-6.67-47.13-20-12.7-13.33-19.04-29.75-19.04-49.28s6.31-36.07,18.93-49.16c12.62-13.09,28.29-19.64,47.02-19.64,8.89,0,16.78,1.15,23.69,3.45,6.9,2.3,12.74,6.07,17.5,11.31v-55.7h31.66ZM228.21,407.87c-10.86,0-20.04,3.73-27.55,11.19-7.51,7.46-11.26,16.75-11.26,27.85,0,11.9,3.79,21.87,11.38,29.88,7.58,8.02,16.96,12.02,28.15,12.02s20-3.93,27.42-11.78c7.42-7.86,11.14-17.5,11.14-28.92s-3.75-21.19-11.26-28.81c-7.51-7.62-16.85-11.43-28.02-11.43"/>
        <path class="cls-4" d="M437.94,382.87v131.88h-29.28v-12.62c-5.87,5.71-11.67,9.76-17.38,12.14-5.71,2.38-12.54,3.57-20.47,3.57-33.49,0-50.23-21.43-50.23-64.28v-70.7h31.66v64.51c0,15.39,1.82,26.15,5.47,32.25,3.65,6.11,10.15,9.17,19.52,9.17,10.79,0,18.33-3.21,22.61-9.64,4.29-6.43,6.43-17.81,6.43-34.16v-62.13h31.66Z"/>
        <rect class="cls-4" x="468.17" y="432.15" width="65.94" height="28.09"/>
        <path class="cls-4" d="M563.39,514.76v-175.92h31.66v56.18c5.87-5.87,11.9-9.88,18.09-12.02,6.19-2.14,13.81-3.22,22.85-3.22,19.04,0,34.87,6.39,47.49,19.16,12.62,12.78,18.93,29.08,18.93,48.92s-6.04,37.06-18.09,50.23c-12.06,13.18-27.46,19.76-46.18,19.76-9.68,0-18.02-1.51-25-4.52-6.99-3.01-13.89-8.17-20.71-15.47v16.9h-29.04ZM631.59,407.87c-11.15,0-20.34,3.69-27.58,11.07-7.25,7.38-10.86,16.94-10.86,28.69s3.58,22.14,10.75,29.75c7.16,7.62,16.56,11.43,28.18,11.43s20.77-3.73,27.94-11.19c7.16-7.46,10.75-17.29,10.75-29.52s-3.67-21.58-10.99-29.04c-7.32-7.46-16.71-11.19-28.17-11.19"/>
        <path class="cls-4" d="M720.51,514.76v-131.88h29.04v12.85c4.13-6.03,8.25-10.19,12.38-12.5,4.13-2.3,9.44-3.45,15.95-3.45h2.62v30.47c-18.89,0-28.33,10.4-28.33,31.19v73.32h-31.66Z"/>
        <path class="cls-4" d="M796.68,338.83h31.66v29.76h-31.66v-29.76ZM796.68,382.87h31.66v131.88h-31.66v-131.88Z"/>
        <path class="cls-4" d="M986.89,338.83v175.92h-29.05v-17.14c-12.22,13.49-26.74,20.24-43.56,20.24-18.73,0-34.44-6.67-47.13-20-12.7-13.33-19.05-29.75-19.05-49.28s6.31-36.07,18.93-49.16c12.62-13.09,28.29-19.64,47.02-19.64,8.88,0,16.78,1.15,23.69,3.45,6.9,2.3,12.74,6.07,17.5,11.31v-55.7h31.66ZM918.56,407.87c-10.86,0-20.04,3.73-27.55,11.19-7.51,7.46-11.25,16.75-11.25,27.85,0,11.9,3.79,21.87,11.37,29.88,7.58,8.02,16.97,12.02,28.15,12.02s20-3.93,27.42-11.78c7.42-7.86,11.14-17.5,11.14-28.92s-3.75-21.19-11.26-28.81c-7.51-7.62-16.85-11.43-28.02-11.43"/>
        <path class="cls-4" d="M1113.29,382.87h30.23v106.89c0,51.74-22.78,77.61-68.32,77.61-16.35,0-30.39-3.65-42.14-10.95-11.74-7.3-20.32-17.62-25.71-30.95h35.95c8.25,9.36,19.12,14.05,32.61,14.05,12.22,0,21.5-3.49,27.85-10.48,6.35-6.99,9.52-17.53,9.52-31.66-6.19,7.3-12.62,12.54-19.28,15.71-6.67,3.17-14.68,4.76-24.04,4.76-18.73,0-34.2-6.58-46.42-19.76-12.22-13.17-18.33-29.91-18.33-50.23s6.15-35.75,18.45-48.68c12.3-12.93,27.81-19.4,46.54-19.4s33.25,6.59,43.09,19.76v-16.66ZM1073.65,408.82c-11.14,0-20.06,3.65-26.75,10.95-6.69,7.3-10.03,17.14-10.03,29.52s3.34,21.66,10.03,28.8c6.69,7.14,15.76,10.71,27.23,10.71s20.82-3.61,27.58-10.83c6.77-7.22,10.15-17.1,10.15-29.64,0-11.58-3.54-21.07-10.63-28.45-7.08-7.38-16.28-11.07-27.58-11.07"/>
        <path class="cls-4" d="M1298.73,462.86h-102.13c1.9,7.94,6.07,14.25,12.5,18.93,6.43,4.68,14.4,7.02,23.92,7.02,6.67,0,12.14-.95,16.43-2.86,4.29-1.9,8.49-5.31,12.62-10.24h34.52c-3.97,12.38-11.83,22.5-23.57,30.35-11.75,7.86-24.84,11.78-39.28,11.78-20,0-36.9-6.58-50.7-19.76-13.81-13.17-20.71-29.44-20.71-48.8s6.74-35.79,20.24-49.28c13.48-13.49,29.91-20.24,49.28-20.24s35.95,6.67,48.8,20c12.85,13.33,19.28,30.31,19.28,50.94,0,4.29-.4,8.33-1.19,12.14M1195.66,435.01h73.08c-4.13-17.46-16.19-26.19-36.18-26.19s-31.82,8.73-36.9,26.19"/>
        <path class="cls-4" d="M312.88,135.71C335.76,114.07,476.27-14.46,684.86,1.34c164.52,12.46,269.95,107.03,299.86,135.89-19.1,19.1-38.21,38.21-57.32,57.32-18.55-18.44-119.44-115.09-278.6-114.25-155.11.82-253.5,93.64-272.91,112.73-21-19.1-42-38.21-63.01-57.32"/>
      </g>
      <text class="cls-5" transform="translate(0 671.55)"><tspan class="cls-1" x="0" y="0">Bridging </tspan><tspan class="cls-2" x="366.57" y="0">Y</tspan><tspan class="cls-6" x="419.48" y="0">our D</tspan><tspan class="cls-3" x="637.38" y="0">r</tspan><tspan class="cls-1" x="669.1" y="0">eams </tspan><tspan class="cls-7" x="916.84" y="0">t</tspan><tspan class="cls-1" x="946.48" y="0">o Reality</tspan></text>
    </g>
  </g>
</svg>